<?xml version="1.0" encoding="UTF-8"?>
<svg width="800px" height="800px" viewBox="0 0 24 24" fill="none" xmlns="http://www.w3.org/2000/svg">
  <path fill-rule="evenodd" clip-rule="evenodd" d="M12 0C5.372 0 0 5.373 0 12c0 5.303 3.438 9.8 8.207 11.387.6.111.793-.261.793-.577 0-.285-.011-1.04-.017-2.042-3.338.726-4.042-1.611-4.042-1.611-.546-1.387-1.333-1.756-1.333-1.756-1.089-.745.083-.729.083-.729 1.205.085 1.84 1.237 1.84 1.237 1.07 1.834 2.809 1.304 3.495.997.107-.775.419-1.305.762-1.606-2.665-.304-5.467-1.334-5.467-5.933 0-1.311.469-2.382 1.236-3.222-.124-.303-.535-1.524.117-3.176 0 0 1.008-.322 3.301 1.23a11.52 11.52 0 0 1 3.003-.404c1.019.005 2.047.138 3.003.404 2.291-1.553 3.297-1.23 3.297-1.23.653 1.653.242 2.874.119 3.176.77.84 1.235 1.911 1.235 3.222 0 4.609-2.807 5.625-5.479 5.921.43.371.823 1.102.823 2.222 0 1.606-.015 2.898-.015 3.293 0 .319.192.694.801.576C20.565 21.796 24 17.299 24 12c0-6.627-5.373-12-12-12z" fill="#181717"/>
</svg>
